<?xml version="1.0" encoding="UTF-8"?>
<svg xmlns="http://www.w3.org/2000/svg" xmlns:xlink="http://www.w3.org/1999/xlink" version="1.1" viewBox="0 0 720 864">
  <defs>
    <style>
      .cls-1, .cls-2, .cls-3, .cls-4, .cls-5 {
        fill: none;
      }

      .cls-6 {
        fill: #4d4d4d;
      }

      .cls-6, .cls-7, .cls-8, .cls-9, .cls-10, .cls-11 {
        isolation: isolate;
      }

      .cls-6, .cls-7, .cls-8, .cls-10, .cls-11 {
        font-family: ArialMT, Arial;
      }

      .cls-6, .cls-8, .cls-9 {
        font-size: 10.4px;
      }

      .cls-7 {
        font-size: 9.1px;
      }

      .cls-2 {
        stroke: #7f7f7f;
        stroke-dasharray: 5.7 5.7;
      }

      .cls-2, .cls-3, .cls-4 {
        stroke-width: 1.1px;
      }

      .cls-2, .cls-3, .cls-4, .cls-12, .cls-5 {
        stroke-linejoin: round;
      }

      .cls-3 {
        stroke-dasharray: 1.4 4.3;
      }

      .cls-3, .cls-4, .cls-12 {
        stroke: #000;
      }

      .cls-9 {
        fill: #1a1a1a;
        font-family: Arial-BoldMT, Arial;
        font-weight: 700;
      }

      .cls-10 {
        font-size: 13px;
      }

      .cls-13 {
        clip-path: url(#clippath-17);
      }

      .cls-14 {
        clip-path: url(#clippath-19);
      }

      .cls-15 {
        clip-path: url(#clippath-11);
      }

      .cls-16 {
        clip-path: url(#clippath-15);
      }

      .cls-17 {
        clip-path: url(#clippath-13);
      }

      .cls-18 {
        clip-path: url(#clippath-27);
      }

      .cls-19 {
        clip-path: url(#clippath-28);
      }

      .cls-20 {
        clip-path: url(#clippath-21);
      }

      .cls-21 {
        clip-path: url(#clippath-23);
      }

      .cls-22 {
        clip-path: url(#clippath-25);
      }

      .cls-23 {
        letter-spacing: .2em;
      }

      .cls-24 {
        clip-path: url(#clippath-1);
      }

      .cls-25 {
        clip-path: url(#clippath-3);
      }

      .cls-26 {
        clip-path: url(#clippath-7);
      }

      .cls-27 {
        clip-path: url(#clippath-9);
      }

      .cls-28 {
        clip-path: url(#clippath-5);
      }

      .cls-11 {
        font-size: 15.6px;
      }

      .cls-12 {
        stroke-linecap: round;
        stroke-width: .7px;
      }

      .cls-5 {
        stroke: #ebebeb;
        stroke-width: 1.3px;
      }

      .cls-29 {
        letter-spacing: 0em;
      }

      .cls-30 {
        letter-spacing: 0em;
      }
    </style>
    <clipPath id="clippath-1">
      <rect class="cls-1" x="188.3" y="27.4" width="426.1" height="101.8"/>
    </clipPath>
    <clipPath id="clippath-3">
      <rect class="cls-1" x="188.3" y="142.3" width="426.1" height="101.8"/>
    </clipPath>
    <clipPath id="clippath-5">
      <rect class="cls-1" x="188.3" y="259.9" width="426.1" height="101.8"/>
    </clipPath>
    <clipPath id="clippath-7">
      <rect class="cls-1" x="188.3" y="376.2" width="426.1" height="101.9"/>
    </clipPath>
    <clipPath id="clippath-9">
      <rect class="cls-1" x="188.3" y="492.4" width="426.1" height="101.9"/>
    </clipPath>
    <clipPath id="clippath-11">
      <rect class="cls-1" x="188.3" y="608.7" width="426.1" height="101.8"/>
    </clipPath>
    <clipPath id="clippath-13">
      <rect class="cls-1" x="188.3" y="724.9" width="426.1" height="101.8"/>
    </clipPath>
    <clipPath id="clippath-15">
      <rect class="cls-1" x="168.3" y="27.4" width="20" height="101.8"/>
    </clipPath>
    <clipPath id="clippath-17">
      <rect class="cls-1" x="168.3" y="143.7" width="20" height="101.8"/>
    </clipPath>
    <clipPath id="clippath-19">
      <rect class="cls-1" x="168.3" y="259.9" width="20" height="101.8"/>
    </clipPath>
    <clipPath id="clippath-21">
      <rect class="cls-1" x="168.3" y="376.2" width="20" height="101.9"/>
    </clipPath>
    <clipPath id="clippath-23">
      <rect class="cls-1" x="168.3" y="492.4" width="20" height="101.9"/>
    </clipPath>
    <clipPath id="clippath-25">
      <rect class="cls-1" x="168.3" y="608.7" width="20" height="101.8"/>
    </clipPath>
    <clipPath id="clippath-27">
      <rect class="cls-1" x="168.3" y="724.9" width="20" height="101.8"/>
    </clipPath>
    <clipPath id="clippath-28">
      <rect class="cls-1" width="720" height="864"/>
    </clipPath>
  </defs>
  <!-- Generator: Adobe Illustrator 28.6.0, SVG Export Plug-In . SVG Version: 1.2.0 Build 709)  -->
  <g>
    <g id="Layer_1">
      <rect class="cls-1" width="720" height="864"/>
      <g class="cls-24">
        <g>
          <line class="cls-5" x1="188.3" y1="110.2" x2="614.4" y2="110.2"/>
          <line class="cls-5" x1="188.3" y1="78.3" x2="614.4" y2="78.3"/>
          <line class="cls-5" x1="188.3" y1="46.5" x2="614.4" y2="46.5"/>
          <line class="cls-5" x1="258.1" y1="129.3" x2="258.1" y2="27.4"/>
          <line class="cls-5" x1="338.6" y1="129.3" x2="338.6" y2="27.4"/>
          <line class="cls-5" x1="419.1" y1="129.3" x2="419.1" y2="27.4"/>
          <line class="cls-5" x1="499.6" y1="129.3" x2="499.6" y2="27.4"/>
          <line class="cls-5" x1="580.1" y1="129.3" x2="580.1" y2="27.4"/>
          <circle class="cls-12" cx="320" cy="114.1" r="3.6"/>
          <circle class="cls-12" cx="320.5" cy="82.3" r="3.6"/>
          <circle class="cls-12" cx="338.8" cy="50.5" r="3.6"/>
          <rect class="cls-12" x="325.3" y="103" width="6.3" height="6.3"/>
          <rect class="cls-12" x="325.6" y="71.2" width="6.3" height="6.3"/>
          <rect class="cls-12" x="335.4" y="39.4" width="6.3" height="6.3"/>
          <line class="cls-4" x1="342.7" y1="115.7" x2="342.7" y2="112.6"/>
          <line class="cls-4" x1="342.7" y1="114.1" x2="297.2" y2="114.1"/>
          <line class="cls-4" x1="297.2" y1="115.7" x2="297.2" y2="112.6"/>
          <line class="cls-4" x1="343.2" y1="83.9" x2="343.2" y2="80.7"/>
          <line class="cls-4" x1="343.2" y1="82.3" x2="297.7" y2="82.3"/>
          <line class="cls-4" x1="297.7" y1="83.9" x2="297.7" y2="80.7"/>
          <line class="cls-4" x1="440.5" y1="52.1" x2="440.5" y2="48.9"/>
          <line class="cls-4" x1="440.5" y1="50.5" x2="237.1" y2="50.5"/>
          <line class="cls-4" x1="237.1" y1="52.1" x2="237.1" y2="48.9"/>
          <line class="cls-3" x1="343.4" y1="107.8" x2="343.4" y2="104.6"/>
          <line class="cls-3" x1="343.4" y1="106.2" x2="313.4" y2="106.2"/>
          <line class="cls-3" x1="313.4" y1="107.8" x2="313.4" y2="104.6"/>
          <line class="cls-3" x1="343.7" y1="75.9" x2="343.7" y2="72.8"/>
          <line class="cls-3" x1="343.7" y1="74.3" x2="313.7" y2="74.3"/>
          <line class="cls-3" x1="313.7" y1="75.9" x2="313.7" y2="72.8"/>
          <line class="cls-3" x1="440.2" y1="44.1" x2="440.2" y2="40.9"/>
          <line class="cls-3" x1="440.2" y1="42.5" x2="236.9" y2="42.5"/>
          <line class="cls-3" x1="236.9" y1="44.1" x2="236.9" y2="40.9"/>
          <text class="cls-7" transform="translate(328.9 117.4)"><tspan x="0" y="0">RR = 0.85 [0.70–1.04]</tspan></text>
          <text class="cls-7" transform="translate(329.4 85.6)"><tspan x="0" y="0">RR = 0.86 [0.70–1.04]</tspan></text>
          <text class="cls-7" transform="translate(347.7 53.7)"><tspan x="0" y="0">RR = 1.00 [0.42–2.40]</tspan></text>
          <text class="cls-7" transform="translate(337.3 109.4)"><tspan x="0" y="0">RR = 0.92 [0.81–1.04]</tspan></text>
          <text class="cls-7" transform="translate(337.7 77.6)"><tspan x="0" y="0">RR = 0.92 [0.81–1.05]</tspan></text>
          <text class="cls-7" transform="translate(347.5 45.8)"><tspan x="0" y="0">RR = 1.00 [0.42–2.40]</tspan></text>
          <line class="cls-2" x1="338.6" y1="129.3" x2="338.6" y2="27.4"/>
        </g>
      </g>
      <g class="cls-25">
        <g>
          <line class="cls-5" x1="188.3" y1="236.7" x2="614.4" y2="236.7"/>
          <line class="cls-5" x1="188.3" y1="224.2" x2="614.4" y2="224.2"/>
          <line class="cls-5" x1="188.3" y1="211.8" x2="614.4" y2="211.8"/>
          <line class="cls-5" x1="188.3" y1="199.4" x2="614.4" y2="199.4"/>
          <line class="cls-5" x1="188.3" y1="187" x2="614.4" y2="187"/>
          <line class="cls-5" x1="188.3" y1="174.5" x2="614.4" y2="174.5"/>
          <line class="cls-5" x1="188.3" y1="162.1" x2="614.4" y2="162.1"/>
          <line class="cls-5" x1="188.3" y1="149.7" x2="614.4" y2="149.7"/>
          <line class="cls-5" x1="258.1" y1="244.1" x2="258.1" y2="142.3"/>
          <line class="cls-5" x1="338.6" y1="244.1" x2="338.6" y2="142.3"/>
          <line class="cls-5" x1="419.1" y1="244.1" x2="419.1" y2="142.3"/>
          <line class="cls-5" x1="499.6" y1="244.1" x2="499.6" y2="142.3"/>
          <line class="cls-5" x1="580.1" y1="244.1" x2="580.1" y2="142.3"/>
          <circle class="cls-12" cx="324.6" cy="238.2" r="3.6"/>
          <circle class="cls-12" cx="352.6" cy="225.8" r="3.6"/>
          <circle class="cls-12" cx="299.1" cy="213.4" r="3.6"/>
          <circle class="cls-12" cx="334.3" cy="200.9" r="3.6"/>
          <circle class="cls-12" cx="330.5" cy="188.5" r="3.6"/>
          <circle class="cls-12" cx="385.7" cy="176.1" r="3.6"/>
          <circle class="cls-12" cx="333.1" cy="163.7" r="3.6"/>
          <circle class="cls-12" cx="333.1" cy="163.7" r="3.6"/>
          <circle class="cls-12" cx="318.9" cy="151.3" r="3.6"/>
          <rect class="cls-12" x="323.2" y="232" width="6.3" height="6.3"/>
          <rect class="cls-12" x="349" y="219.5" width="6.3" height="6.3"/>
          <rect class="cls-12" x="298.8" y="207.1" width="6.3" height="6.3"/>
          <rect class="cls-12" x="337.3" y="194.7" width="6.3" height="6.3"/>
          <rect class="cls-12" x="346.1" y="182.3" width="6.3" height="6.3"/>
          <rect class="cls-12" x="357.6" y="169.8" width="6.3" height="6.3"/>
          <rect class="cls-12" x="351.4" y="157.4" width="6.3" height="6.3"/>
          <rect class="cls-12" x="351.4" y="157.4" width="6.3" height="6.3"/>
          <rect class="cls-12" x="327.6" y="145" width="6.3" height="6.3"/>
          <line class="cls-4" x1="356.8" y1="238.8" x2="356.8" y2="237.6"/>
          <line class="cls-4" x1="356.8" y1="238.2" x2="292.3" y2="238.2"/>
          <line class="cls-4" x1="292.3" y1="238.8" x2="292.3" y2="237.6"/>
          <line class="cls-4" x1="430.7" y1="226.4" x2="430.7" y2="225.2"/>
          <line class="cls-4" x1="430.7" y1="225.8" x2="274.5" y2="225.8"/>
          <line class="cls-4" x1="274.5" y1="226.4" x2="274.5" y2="225.2"/>
          <line class="cls-4" x1="362.3" y1="214" x2="362.3" y2="212.7"/>
          <line class="cls-4" x1="362.3" y1="213.4" x2="235.8" y2="213.4"/>
          <line class="cls-4" x1="235.8" y1="214" x2="235.8" y2="212.7"/>
          <line class="cls-4" x1="395.5" y1="201.6" x2="395.5" y2="200.3"/>
          <line class="cls-4" x1="395.5" y1="200.9" x2="273.1" y2="200.9"/>
          <line class="cls-4" x1="273.1" y1="201.6" x2="273.1" y2="200.3"/>
          <line class="cls-4" x1="361.5" y1="189.1" x2="361.5" y2="187.9"/>
          <line class="cls-4" x1="361.5" y1="188.5" x2="299.3" y2="188.5"/>
          <line class="cls-4" x1="299.3" y1="189.1" x2="299.3" y2="187.9"/>
          <line class="cls-4" x1="478.5" y1="176.7" x2="478.5" y2="175.5"/>
          <line class="cls-4" x1="478.5" y1="176.1" x2="292.9" y2="176.1"/>
          <line class="cls-4" x1="292.9" y1="176.7" x2="292.9" y2="175.5"/>
          <line class="cls-4" x1="365.7" y1="164.3" x2="365.7" y2="163.1"/>
          <line class="cls-4" x1="365.7" y1="163.7" x2="300.6" y2="163.7"/>
          <line class="cls-4" x1="300.6" y1="164.3" x2="300.6" y2="163.1"/>
          <line class="cls-4" x1="365.7" y1="164.3" x2="365.7" y2="163.1"/>
          <line class="cls-4" x1="365.7" y1="163.7" x2="300.6" y2="163.7"/>
          <line class="cls-4" x1="300.6" y1="164.3" x2="300.6" y2="163.1"/>
          <line class="cls-4" x1="340.3" y1="151.9" x2="340.3" y2="150.6"/>
          <line class="cls-4" x1="340.3" y1="151.3" x2="297.5" y2="151.3"/>
          <line class="cls-4" x1="297.5" y1="151.9" x2="297.5" y2="150.6"/>
          <line class="cls-3" x1="347.7" y1="235.7" x2="347.7" y2="234.5"/>
          <line class="cls-3" x1="347.7" y1="235.1" x2="305" y2="235.1"/>
          <line class="cls-3" x1="305" y1="235.7" x2="305" y2="234.5"/>
          <line class="cls-3" x1="406.4" y1="223.3" x2="406.4" y2="222.1"/>
          <line class="cls-3" x1="406.4" y1="222.7" x2="297.9" y2="222.7"/>
          <line class="cls-3" x1="297.9" y1="223.3" x2="297.9" y2="222.1"/>
          <line class="cls-3" x1="347.3" y1="210.9" x2="347.3" y2="209.6"/>
          <line class="cls-3" x1="347.3" y1="210.3" x2="256.6" y2="210.3"/>
          <line class="cls-3" x1="256.6" y1="210.9" x2="256.6" y2="209.6"/>
          <line class="cls-3" x1="383.8" y1="198.5" x2="383.8" y2="197.2"/>
          <line class="cls-3" x1="383.8" y1="197.8" x2="297.2" y2="197.8"/>
          <line class="cls-3" x1="297.2" y1="198.5" x2="297.2" y2="197.2"/>
          <line class="cls-3" x1="371.4" y1="186" x2="371.4" y2="184.8"/>
          <line class="cls-3" x1="371.4" y1="185.4" x2="327.2" y2="185.4"/>
          <line class="cls-3" x1="327.2" y1="186" x2="327.2" y2="184.8"/>
          <line class="cls-3" x1="431.1" y1="173.6" x2="431.1" y2="172.4"/>
          <line class="cls-3" x1="431.1" y1="173" x2="290.4" y2="173"/>
          <line class="cls-3" x1="290.4" y1="173.6" x2="290.4" y2="172.4"/>
          <line class="cls-3" x1="377.8" y1="161.2" x2="377.8" y2="160"/>
          <line class="cls-3" x1="377.8" y1="160.6" x2="331.3" y2="160.6"/>
          <line class="cls-3" x1="331.3" y1="161.2" x2="331.3" y2="160"/>
          <line class="cls-3" x1="377.8" y1="161.2" x2="377.8" y2="160"/>
          <line class="cls-3" x1="377.8" y1="160.6" x2="331.3" y2="160.6"/>
          <line class="cls-3" x1="331.3" y1="161.2" x2="331.3" y2="160"/>
          <line class="cls-3" x1="345.7" y1="148.8" x2="345.7" y2="147.5"/>
          <line class="cls-3" x1="345.7" y1="148.2" x2="315.7" y2="148.2"/>
          <line class="cls-3" x1="315.7" y1="148.8" x2="315.7" y2="147.5"/>
          <text class="cls-7" transform="translate(333.5 241.5)"><tspan x="0" y="0">RR = 0.89 [0.67–1.17]</tspan></text>
          <text class="cls-7" transform="translate(361.5 229)"><tspan x="0" y="0">RR = 1.13 [0.58–2.21]</tspan></text>
          <text class="cls-7" transform="translate(308 216.6)"><tspan x="0" y="0">RR = 0.71 [0.41–1.23]</tspan></text>
          <text class="cls-7" transform="translate(343.2 204.2)"><tspan x="0" y="0">RR = 0.96 [0.57–1.63]</tspan></text>
          <text class="cls-7" transform="translate(339.4 191.8)"><tspan x="0" y="0">RR = 0.93 [0.71–1.22]</tspan></text>
          <text class="cls-7" transform="translate(394.7 179.4)"><tspan x="0" y="0">RR = 1.50 [0.67–3.34]</tspan></text>
          <text class="cls-7" transform="translate(342.1 166.9)"><tspan x="0" y="0">RR = 0.95 [0.72–1.26]</tspan></text>
          <text class="cls-7" transform="translate(342.1 166.9)"><tspan x="0" y="0">RR = 0.95 [0.72–1.26]</tspan></text>
          <text class="cls-7" transform="translate(327.8 154.5)"><tspan x="0" y="0">RR = 0.84 [0.70–1.01]</tspan></text>
          <text class="cls-7" transform="translate(335.3 238.4)"><tspan x="0" y="0">RR = 0.90 [0.75–1.08]</tspan></text>
          <text class="cls-7" transform="translate(361.1 225.9)"><tspan x="0" y="0">RR = 1.12 [0.70–1.79]</tspan></text>
          <text class="cls-7" transform="translate(310.9 213.5)"><tspan x="0" y="0">RR = 0.73 [0.49–1.08]</tspan></text>
          <text class="cls-7" transform="translate(349.4 201.1)"><tspan x="0" y="0">RR = 1.02 [0.70–1.48]</tspan></text>
          <text class="cls-7" transform="translate(358.2 188.7)"><tspan x="0" y="0">RR = 1.10 [0.91–1.33]</tspan></text>
          <text class="cls-7" transform="translate(369.7 176.2)"><tspan x="0" y="0">RR = 1.21 [0.66–2.22]</tspan></text>
          <text class="cls-7" transform="translate(363.4 163.8)"><tspan x="0" y="0">RR = 1.15 [0.94–1.40]</tspan></text>
          <text class="cls-7" transform="translate(363.4 163.8)"><tspan x="0" y="0">RR = 1.15 [0.94–1.40]</tspan></text>
          <text class="cls-7" transform="translate(339.7 151.4)"><tspan x="0" y="0">RR = 0.93 [0.82–1.06]</tspan></text>
          <line class="cls-2" x1="338.6" y1="244.1" x2="338.6" y2="142.3"/>
        </g>
      </g>
      <g class="cls-28">
        <line class="cls-5" x1="193.1" y1="347.2" x2="619.2" y2="347.2"/>
        <line class="cls-5" x1="193.1" y1="323" x2="619.2" y2="323"/>
        <line class="cls-5" x1="193.1" y1="298.7" x2="619.2" y2="298.7"/>
        <line class="cls-5" x1="193.1" y1="274.5" x2="619.2" y2="274.5"/>
        <line class="cls-5" x1="262.9" y1="361.8" x2="262.9" y2="259.9"/>
        <line class="cls-5" x1="343.4" y1="361.8" x2="343.4" y2="259.9"/>
        <line class="cls-5" x1="423.9" y1="361.8" x2="423.9" y2="259.9"/>
        <line class="cls-5" x1="504.4" y1="361.8" x2="504.4" y2="259.9"/>
        <line class="cls-5" x1="584.9" y1="361.8" x2="584.9" y2="259.9"/>
        <circle class="cls-12" cx="319.5" cy="350.2" r="3.6"/>
        <circle class="cls-12" cx="322" cy="326" r="3.6"/>
        <circle class="cls-12" cx="325.8" cy="301.7" r="3.6"/>
        <circle class="cls-12" cx="322.6" cy="277.5" r="3.6"/>
        <rect class="cls-12" x="340.8" y="341" width="6.3" height="6.3"/>
        <rect class="cls-12" x="352.5" y="316.8" width="6.3" height="6.3"/>
        <rect class="cls-12" x="338.6" y="292.5" width="6.3" height="6.3"/>
        <rect class="cls-12" x="341.3" y="268.3" width="6.3" height="6.3"/>
        <line class="cls-4" x1="349.2" y1="351.5" x2="349.2" y2="349"/>
        <line class="cls-4" x1="349.2" y1="350.2" x2="289.8" y2="350.2"/>
        <line class="cls-4" x1="289.8" y1="351.5" x2="289.8" y2="349"/>
        <line class="cls-4" x1="344.7" y1="327.2" x2="344.7" y2="324.8"/>
        <line class="cls-4" x1="344.7" y1="326" x2="299.3" y2="326"/>
        <line class="cls-4" x1="299.3" y1="327.2" x2="299.3" y2="324.8"/>
        <line class="cls-4" x1="347.3" y1="303" x2="347.3" y2="300.5"/>
        <line class="cls-4" x1="347.3" y1="301.7" x2="304.3" y2="301.7"/>
        <line class="cls-4" x1="304.3" y1="303" x2="304.3" y2="300.5"/>
        <line class="cls-4" x1="341" y1="278.7" x2="341" y2="276.3"/>
        <line class="cls-4" x1="341" y1="277.5" x2="304.3" y2="277.5"/>
        <line class="cls-4" x1="304.3" y1="278.7" x2="304.3" y2="276.3"/>
        <line class="cls-3" x1="362.8" y1="345.4" x2="362.8" y2="343"/>
        <line class="cls-3" x1="362.8" y1="344.2" x2="325.1" y2="344.2"/>
        <line class="cls-3" x1="325.1" y1="345.4" x2="325.1" y2="343"/>
        <line class="cls-3" x1="370.6" y1="321.1" x2="370.6" y2="318.7"/>
        <line class="cls-3" x1="370.6" y1="319.9" x2="340.7" y2="319.9"/>
        <line class="cls-3" x1="340.7" y1="321.1" x2="340.7" y2="318.7"/>
        <line class="cls-3" x1="355.8" y1="296.9" x2="355.8" y2="294.5"/>
        <line class="cls-3" x1="355.8" y1="295.7" x2="327.8" y2="295.7"/>
        <line class="cls-3" x1="327.8" y1="296.9" x2="327.8" y2="294.5"/>
        <line class="cls-3" x1="356.6" y1="272.6" x2="356.6" y2="270.2"/>
        <line class="cls-3" x1="356.6" y1="271.4" x2="332.3" y2="271.4"/>
        <line class="cls-3" x1="332.3" y1="272.6" x2="332.3" y2="270.2"/>
        <text class="cls-7" transform="translate(530.7 355.9)"><tspan x="0" y="0">RR = 0.81 [0.63–1.05]</tspan></text>
        <text class="cls-7" transform="translate(527.8 331.7)"><tspan x="0" y="0">RR = 0.83 [0.68–1.01]</tspan></text>
        <text class="cls-7" transform="translate(529.2 309.2)"><tspan x="0" y="0">RR = 0.86 [0.71–1.03]</tspan></text>
        <text class="cls-7" transform="translate(527.8 280.6)"><tspan x="0" y="0">RR = 0.84 [0.71–0.98]</tspan></text>
        <text class="cls-7" transform="translate(529.9 341)"><tspan x="0" y="0">RR = 1.00 [0.85–1.18]</tspan></text>
        <text class="cls-7" transform="translate(528.5 321.5)"><tspan x="0" y="0">RR</tspan><tspan class="cls-30" x="13.1" y="0"> </tspan><tspan x="15.5" y="0">=</tspan><tspan class="cls-29" x="20.8" y="0"> </tspan><tspan x="23.1" y="0">1.11</tspan><tspan class="cls-30" x="40.8" y="0"> </tspan><tspan x="43.1" y="0">[0.98–1.26]</tspan></text>
        <text class="cls-7" transform="translate(528.5 297.3)"><tspan x="0" y="0">RR</tspan><tspan class="cls-30" x="13.1" y="0"> </tspan><tspan x="15.5" y="0">=</tspan><tspan class="cls-29" x="20.8" y="0"> </tspan><tspan x="23.1" y="0">0.99</tspan><tspan class="cls-30" x="40.8" y="0"> </tspan><tspan x="43.1" y="0">[0.87–1.11]</tspan></text>
        <text class="cls-7" transform="translate(527.8 270.6)"><tspan x="0" y="0">RR = 1.01 [0.91–1.12]</tspan></text>
        <line class="cls-2" x1="343.4" y1="361.8" x2="343.4" y2="259.9"/>
      </g>
      <g class="cls-26">
        <line class="cls-5" x1="188.3" y1="469.5" x2="614.4" y2="469.5"/>
        <line class="cls-5" x1="188.3" y1="455.4" x2="614.4" y2="455.4"/>
        <line class="cls-5" x1="188.3" y1="441.2" x2="614.4" y2="441.2"/>
        <line class="cls-5" x1="188.3" y1="427.1" x2="614.4" y2="427.1"/>
        <line class="cls-5" x1="188.3" y1="413" x2="614.4" y2="413"/>
        <line class="cls-5" x1="188.3" y1="398.8" x2="614.4" y2="398.8"/>
        <line class="cls-5" x1="188.3" y1="384.6" x2="614.4" y2="384.6"/>
        <line class="cls-5" x1="258.1" y1="478" x2="258.1" y2="376.2"/>
        <line class="cls-5" x1="338.6" y1="478" x2="338.6" y2="376.2"/>
        <line class="cls-5" x1="419.1" y1="478" x2="419.1" y2="376.2"/>
        <line class="cls-5" x1="499.6" y1="478" x2="499.6" y2="376.2"/>
        <line class="cls-5" x1="580.1" y1="478" x2="580.1" y2="376.2"/>
        <circle class="cls-12" cx="308.6" cy="471.3" r="3.6"/>
        <circle class="cls-12" cx="318.2" cy="457.2" r="3.6"/>
        <circle class="cls-12" cx="334" cy="443" r="3.6"/>
        <circle class="cls-12" cx="315.4" cy="428.9" r="3.6"/>
        <circle class="cls-12" cx="273.8" cy="414.7" r="3.6"/>
        <circle class="cls-12" cx="338.6" cy="400.6" r="3.6"/>
        <circle class="cls-12" cx="314.3" cy="386.4" r="3.6"/>
        <rect class="cls-12" x="329.4" y="464.6" width="6.3" height="6.3"/>
        <rect class="cls-12" x="344.7" y="450.5" width="6.3" height="6.3"/>
        <rect class="cls-12" x="352.1" y="436.3" width="6.3" height="6.3"/>
        <rect class="cls-12" x="365.8" y="422.2" width="6.3" height="6.3"/>
        <rect class="cls-12" x="339.5" y="408" width="6.3" height="6.3"/>
        <rect class="cls-12" x="335.5" y="393.9" width="6.3" height="6.3"/>
        <rect class="cls-12" x="346.3" y="379.7" width="6.3" height="6.3"/>
        <line class="cls-4" x1="351.5" y1="472" x2="351.5" y2="470.6"/>
        <line class="cls-4" x1="351.5" y1="471.3" x2="265.6" y2="471.3"/>
        <line class="cls-4" x1="265.6" y1="472" x2="265.6" y2="470.6"/>
        <line class="cls-4" x1="340.4" y1="457.9" x2="340.4" y2="456.5"/>
        <line class="cls-4" x1="340.4" y1="457.2" x2="296" y2="457.2"/>
        <line class="cls-4" x1="296" y1="457.9" x2="296" y2="456.5"/>
        <line class="cls-4" x1="403.3" y1="443.7" x2="403.3" y2="442.3"/>
        <line class="cls-4" x1="403.3" y1="443" x2="264.7" y2="443"/>
        <line class="cls-4" x1="264.7" y1="443.7" x2="264.7" y2="442.3"/>
        <line class="cls-4" x1="375.3" y1="429.6" x2="375.3" y2="428.2"/>
        <line class="cls-4" x1="375.3" y1="428.9" x2="255.5" y2="428.9"/>
        <line class="cls-4" x1="255.5" y1="429.6" x2="255.5" y2="428.2"/>
        <line class="cls-4" x1="356" y1="415.4" x2="356" y2="414"/>
        <line class="cls-4" x1="356" y1="414.7" x2="191.6" y2="414.7"/>
        <line class="cls-4" x1="191.6" y1="415.4" x2="191.6" y2="414"/>
        <line class="cls-4" x1="440.3" y1="401.3" x2="440.3" y2="399.9"/>
        <line class="cls-4" x1="440.3" y1="400.6" x2="236.9" y2="400.6"/>
        <line class="cls-4" x1="236.9" y1="401.3" x2="236.9" y2="399.9"/>
        <line class="cls-4" x1="350.1" y1="387.1" x2="350.1" y2="385.7"/>
        <line class="cls-4" x1="350.1" y1="386.4" x2="278.4" y2="386.4"/>
        <line class="cls-4" x1="278.4" y1="387.1" x2="278.4" y2="385.7"/>
        <line class="cls-3" x1="365.6" y1="468.5" x2="365.6" y2="467.1"/>
        <line class="cls-3" x1="365.6" y1="467.8" x2="299.5" y2="467.8"/>
        <line class="cls-3" x1="299.5" y1="468.5" x2="299.5" y2="467.1"/>
        <line class="cls-3" x1="363.4" y1="454.3" x2="363.4" y2="452.9"/>
        <line class="cls-3" x1="363.4" y1="453.6" x2="332.2" y2="453.6"/>
        <line class="cls-3" x1="332.2" y1="454.3" x2="332.2" y2="452.9"/>
        <line class="cls-3" x1="399.9" y1="440.2" x2="399.9" y2="438.8"/>
        <line class="cls-3" x1="399.9" y1="439.5" x2="310.6" y2="439.5"/>
        <line class="cls-3" x1="310.6" y1="440.2" x2="310.6" y2="438.8"/>
        <line class="cls-3" x1="413.9" y1="426" x2="413.9" y2="424.6"/>
        <line class="cls-3" x1="413.9" y1="425.3" x2="324" y2="425.3"/>
        <line class="cls-3" x1="324" y1="426" x2="324" y2="424.6"/>
        <line class="cls-3" x1="399.8" y1="411.9" x2="399.8" y2="410.5"/>
        <line class="cls-3" x1="399.8" y1="411.2" x2="285.5" y2="411.2"/>
        <line class="cls-3" x1="285.5" y1="411.9" x2="285.5" y2="410.5"/>
        <line class="cls-3" x1="440.3" y1="397.7" x2="440.3" y2="396.3"/>
        <line class="cls-3" x1="440.3" y1="397" x2="236.9" y2="397"/>
        <line class="cls-3" x1="236.9" y1="397.7" x2="236.9" y2="396.3"/>
        <line class="cls-3" x1="377" y1="383.6" x2="377" y2="382.2"/>
        <line class="cls-3" x1="377" y1="382.9" x2="321.9" y2="382.9"/>
        <line class="cls-3" x1="321.9" y1="383.6" x2="321.9" y2="382.2"/>
        <text class="cls-7" transform="translate(317.5 474.6)"><tspan x="0" y="0">RR = 0.77 [0.53–1.12]</tspan></text>
        <text class="cls-7" transform="translate(327.1 460.4)"><tspan x="0" y="0">RR = 0.84 [0.69–1.02]</tspan></text>
        <text class="cls-7" transform="translate(342.9 446.3)"><tspan x="0" y="0">RR = 0.96 [0.53–1.75]</tspan></text>
        <text class="cls-7" transform="translate(324.3 432.1)"><tspan x="0" y="0">RR = 0.82 [0.49–1.37]</tspan></text>
        <text class="cls-7" transform="translate(282.8 418)"><tspan x="0" y="0">RR = 0.57 [0.28–1.16]</tspan></text>
        <text class="cls-7" transform="translate(347.5 403.8)"><tspan x="0" y="0">RR = 1.00 [0.42–2.40]</tspan></text>
        <text class="cls-7" transform="translate(528.7 392.9)"><tspan x="0" y="0">RR = 0.81 [0.60–1.10]</tspan></text>
        <text class="cls-7" transform="translate(341.5 471)"><tspan x="0" y="0">RR = 0.95 [0.71–1.26]</tspan></text>
        <text class="cls-7" transform="translate(356.8 456.9)"><tspan x="0" y="0">RR = 1.08 [0.95–1.24]</tspan></text>
        <text class="cls-7" transform="translate(364.2 442.7)"><tspan x="0" y="0">RR = 1.15 [0.79–1.70]</tspan></text>
        <text class="cls-7" transform="translate(377.9 428.6)"><tspan x="0" y="0">RR = 1.30 [0.88–1.91]</tspan></text>
        <text class="cls-7" transform="translate(351.6 414.4)"><tspan x="0" y="0">RR = 1.04 [0.63–1.69]</tspan></text>
        <text class="cls-7" transform="translate(528.7 402.7)"><tspan x="0" y="0">RR = 1.00 [0.42–2.40]</tspan></text>
        <text class="cls-7" transform="translate(528.7 385.6)"><tspan x="0" y="0">RR = 1.10 [0.87–1.39]</tspan></text>
        <line class="cls-2" x1="338.6" y1="478" x2="338.6" y2="376.2"/>
      </g>
      <g class="cls-27">
        <g>
          <line class="cls-5" x1="188.3" y1="584.4" x2="614.4" y2="584.4"/>
          <line class="cls-5" x1="188.3" y1="568" x2="614.4" y2="568"/>
          <line class="cls-5" x1="188.3" y1="551.6" x2="614.4" y2="551.6"/>
          <line class="cls-5" x1="188.3" y1="535.1" x2="614.4" y2="535.1"/>
          <line class="cls-5" x1="188.3" y1="518.7" x2="614.4" y2="518.7"/>
          <line class="cls-5" x1="188.3" y1="502.3" x2="614.4" y2="502.3"/>
          <line class="cls-5" x1="258.1" y1="594.3" x2="258.1" y2="492.4"/>
          <line class="cls-5" x1="338.6" y1="594.3" x2="338.6" y2="492.4"/>
          <line class="cls-5" x1="419.1" y1="594.3" x2="419.1" y2="492.4"/>
          <line class="cls-5" x1="499.6" y1="594.3" x2="499.6" y2="492.4"/>
          <line class="cls-5" x1="580.1" y1="594.3" x2="580.1" y2="492.4"/>
          <circle class="cls-12" cx="267" cy="586.5" r="3.6"/>
          <circle class="cls-12" cx="338.4" cy="570" r="3.6"/>
          <circle class="cls-12" cx="349.5" cy="553.6" r="3.6"/>
          <circle class="cls-12" cx="338.4" cy="537.2" r="3.6"/>
          <circle class="cls-12" cx="338.4" cy="520.8" r="3.6"/>
          <rect class="cls-12" x="356.7" y="499.1" width="6.3" height="6.3"/>
          <rect class="cls-12" x="308.5" y="579.2" width="6.3" height="6.3"/>
          <rect class="cls-12" x="335.3" y="562.8" width="6.3" height="6.3"/>
          <rect class="cls-12" x="427" y="546.4" width="6.3" height="6.3"/>
          <rect class="cls-12" x="346.5" y="529.9" width="6.3" height="6.3"/>
          <rect class="cls-12" x="361.4" y="513.5" width="6.3" height="6.3"/>
          <line class="cls-4" x1="342.3" y1="587.3" x2="342.3" y2="585.7"/>
          <line class="cls-4" x1="342.3" y1="586.5" x2="191.7" y2="586.5"/>
          <line class="cls-4" x1="191.7" y1="587.3" x2="191.7" y2="585.7"/>
          <line class="cls-4" x1="440.1" y1="570.9" x2="440.1" y2="569.2"/>
          <line class="cls-4" x1="440.1" y1="570" x2="236.7" y2="570"/>
          <line class="cls-4" x1="236.7" y1="570.9" x2="236.7" y2="569.2"/>
          <line class="cls-4" x1="448.9" y1="554.4" x2="448.9" y2="552.8"/>
          <line class="cls-4" x1="448.9" y1="553.6" x2="250.1" y2="553.6"/>
          <line class="cls-4" x1="250.1" y1="554.4" x2="250.1" y2="552.8"/>
          <line class="cls-4" x1="440.1" y1="538" x2="440.1" y2="536.4"/>
          <line class="cls-4" x1="440.1" y1="537.2" x2="236.7" y2="537.2"/>
          <line class="cls-4" x1="236.7" y1="538" x2="236.7" y2="536.4"/>
          <line class="cls-4" x1="416.4" y1="521.6" x2="416.4" y2="519.9"/>
          <line class="cls-4" x1="416.4" y1="520.8" x2="260.5" y2="520.8"/>
          <line class="cls-4" x1="260.5" y1="521.6" x2="260.5" y2="519.9"/>
          <line class="cls-3" x1="457.2" y1="503.9" x2="457.2" y2="500.6"/>
          <line class="cls-3" x1="457.2" y1="502.3" x2="262.5" y2="502.3"/>
          <line class="cls-3" x1="262.5" y1="503.9" x2="262.5" y2="500.6"/>
          <line class="cls-3" x1="364.4" y1="583.2" x2="364.4" y2="581.5"/>
          <line class="cls-3" x1="364.4" y1="582.4" x2="259" y2="582.4"/>
          <line class="cls-3" x1="259" y1="583.2" x2="259" y2="581.5"/>
          <line class="cls-3" x1="440.1" y1="566.8" x2="440.1" y2="565.1"/>
          <line class="cls-3" x1="440.1" y1="565.9" x2="236.7" y2="565.9"/>
          <line class="cls-3" x1="236.7" y1="566.8" x2="236.7" y2="565.1"/>
          <line class="cls-3" x1="516.8" y1="550.3" x2="516.8" y2="548.7"/>
          <line class="cls-3" x1="516.8" y1="549.5" x2="343.5" y2="549.5"/>
          <line class="cls-3" x1="343.5" y1="550.3" x2="343.5" y2="548.7"/>
          <line class="cls-3" x1="449" y1="533.9" x2="449" y2="532.3"/>
          <line class="cls-3" x1="449" y1="533.1" x2="250.3" y2="533.1"/>
          <line class="cls-3" x1="250.3" y1="533.9" x2="250.3" y2="532.3"/>
          <line class="cls-3" x1="426.6" y1="517.5" x2="426.6" y2="515.8"/>
          <line class="cls-3" x1="426.6" y1="516.7" x2="302.4" y2="516.7"/>
          <line class="cls-3" x1="302.4" y1="517.5" x2="302.4" y2="515.8"/>
          <text class="cls-7" transform="translate(275.9 589.7)"><tspan x="0" y="0">RR = 0.54 [0.28–1.03]</tspan></text>
          <text class="cls-7" transform="translate(347.4 573.3)"><tspan x="0" y="0">RR = 1.00 [0.42–2.40]</tspan></text>
          <text class="cls-7" transform="translate(358.4 556.9)"><tspan x="0" y="0">RR = 1.10 [0.47–2.58]</tspan></text>
          <text class="cls-7" transform="translate(347.4 540.4)"><tspan x="0" y="0">RR = 1.00 [0.42–2.40]</tspan></text>
          <text class="cls-7" transform="translate(347.4 524)"><tspan x="0" y="0">RR = 1.00 [0.51–1.95]</tspan></text>
          <text class="cls-7" transform="translate(368.8 505.5)"><tspan x="0" y="0">RR = 1.20 [0.52–2.78]</tspan></text>
          <text class="cls-7" transform="translate(320.6 585.6)"><tspan x="0" y="0">RR = 0.79 [0.50–1.25]</tspan></text>
          <text class="cls-7" transform="translate(347.3 569.2)"><tspan x="0" y="0">RR = 1.00 [0.42–2.40]</tspan></text>
          <text class="cls-7" transform="translate(439.1 552.8)"><tspan x="0" y="0">RR = 2.20 [1.04–4.64]</tspan></text>
          <text class="cls-7" transform="translate(358.5 536.3)"><tspan x="0" y="0">RR = 1.10 [0.47–2.59]</tspan></text>
          <text class="cls-7" transform="translate(373.5 519.9)"><tspan x="0" y="0">RR = 1.25 [0.73–2.13]</tspan></text>
          <line class="cls-2" x1="338.6" y1="594.3" x2="338.6" y2="492.4"/>
        </g>
      </g>
      <g class="cls-15">
        <g>
          <line class="cls-5" x1="188.3" y1="702" x2="614.4" y2="702"/>
          <line class="cls-5" x1="188.3" y1="687.9" x2="614.4" y2="687.9"/>
          <line class="cls-5" x1="188.3" y1="673.8" x2="614.4" y2="673.8"/>
          <line class="cls-5" x1="188.3" y1="659.6" x2="614.4" y2="659.6"/>
          <line class="cls-5" x1="188.3" y1="645.5" x2="614.4" y2="645.5"/>
          <line class="cls-5" x1="188.3" y1="631.3" x2="614.4" y2="631.3"/>
          <line class="cls-5" x1="188.3" y1="617.2" x2="614.4" y2="617.2"/>
          <line class="cls-5" x1="258.1" y1="710.5" x2="258.1" y2="608.7"/>
          <line class="cls-5" x1="338.6" y1="710.5" x2="338.6" y2="608.7"/>
          <line class="cls-5" x1="419.1" y1="710.5" x2="419.1" y2="608.7"/>
          <line class="cls-5" x1="499.6" y1="710.5" x2="499.6" y2="608.7"/>
          <line class="cls-5" x1="580.1" y1="710.5" x2="580.1" y2="608.7"/>
          <circle class="cls-12" cx="325.2" cy="703.8" r="3.6"/>
          <circle class="cls-12" cx="330.4" cy="689.7" r="3.6"/>
          <circle class="cls-12" cx="330.2" cy="675.5" r="3.6"/>
          <circle class="cls-12" cx="333.9" cy="661.4" r="3.6"/>
          <circle class="cls-12" cx="339.1" cy="647.2" r="3.6"/>
          <circle class="cls-12" cx="385.7" cy="633.1" r="3.6"/>
          <circle class="cls-12" cx="328.5" cy="618.9" r="3.6"/>
          <rect class="cls-12" x="333.9" y="697.1" width="6.3" height="6.3"/>
          <rect class="cls-12" x="343.5" y="683" width="6.3" height="6.3"/>
          <rect class="cls-12" x="330.4" y="668.8" width="6.3" height="6.3"/>
          <rect class="cls-12" x="343.7" y="654.7" width="6.3" height="6.3"/>
          <rect class="cls-12" x="330.9" y="640.5" width="6.3" height="6.3"/>
          <rect class="cls-12" x="370" y="626.4" width="6.3" height="6.3"/>
          <rect class="cls-12" x="337.1" y="612.2" width="6.3" height="6.3"/>
          <line class="cls-4" x1="343.5" y1="704.5" x2="343.5" y2="703.1"/>
          <line class="cls-4" x1="343.5" y1="703.8" x2="306.9" y2="703.8"/>
          <line class="cls-4" x1="306.9" y1="704.5" x2="306.9" y2="703.1"/>
          <line class="cls-4" x1="363.6" y1="690.4" x2="363.6" y2="689"/>
          <line class="cls-4" x1="363.6" y1="689.7" x2="297.2" y2="689.7"/>
          <line class="cls-4" x1="297.2" y1="690.4" x2="297.2" y2="689"/>
          <line class="cls-4" x1="360.8" y1="676.2" x2="360.8" y2="674.8"/>
          <line class="cls-4" x1="360.8" y1="675.5" x2="299.7" y2="675.5"/>
          <line class="cls-4" x1="299.7" y1="676.2" x2="299.7" y2="674.8"/>
          <line class="cls-4" x1="365.7" y1="662.1" x2="365.7" y2="660.7"/>
          <line class="cls-4" x1="365.7" y1="661.4" x2="302" y2="661.4"/>
          <line class="cls-4" x1="302" y1="662.1" x2="302" y2="660.7"/>
          <line class="cls-4" x1="399.8" y1="647.9" x2="399.8" y2="646.5"/>
          <line class="cls-4" x1="399.8" y1="647.2" x2="278.5" y2="647.2"/>
          <line class="cls-4" x1="278.5" y1="647.9" x2="278.5" y2="646.5"/>
          <line class="cls-4" x1="478.5" y1="633.8" x2="478.5" y2="632.4"/>
          <line class="cls-4" x1="478.5" y1="633.1" x2="292.9" y2="633.1"/>
          <line class="cls-4" x1="292.9" y1="633.8" x2="292.9" y2="632.4"/>
          <line class="cls-4" x1="345.1" y1="619.6" x2="345.1" y2="618.2"/>
          <line class="cls-4" x1="345.1" y1="618.9" x2="311.8" y2="618.9"/>
          <line class="cls-4" x1="311.8" y1="619.6" x2="311.8" y2="618.2"/>
          <line class="cls-3" x1="349.4" y1="701" x2="349.4" y2="699.6"/>
          <line class="cls-3" x1="349.4" y1="700.3" x2="324.8" y2="700.3"/>
          <line class="cls-3" x1="324.8" y1="701" x2="324.8" y2="699.6"/>
          <line class="cls-3" x1="370.4" y1="686.8" x2="370.4" y2="685.4"/>
          <line class="cls-3" x1="370.4" y1="686.1" x2="322.9" y2="686.1"/>
          <line class="cls-3" x1="322.9" y1="686.8" x2="322.9" y2="685.4"/>
          <line class="cls-3" x1="353.9" y1="672.7" x2="353.9" y2="671.3"/>
          <line class="cls-3" x1="353.9" y1="672" x2="313.3" y2="672"/>
          <line class="cls-3" x1="313.3" y1="672.7" x2="313.3" y2="671.3"/>
          <line class="cls-3" x1="366.7" y1="658.5" x2="366.7" y2="657.1"/>
          <line class="cls-3" x1="366.7" y1="657.8" x2="326.9" y2="657.8"/>
          <line class="cls-3" x1="326.9" y1="658.5" x2="326.9" y2="657.1"/>
          <line class="cls-3" x1="373.8" y1="644.4" x2="373.8" y2="643"/>
          <line class="cls-3" x1="373.8" y1="643.7" x2="294.3" y2="643.7"/>
          <line class="cls-3" x1="294.3" y1="644.4" x2="294.3" y2="643"/>
          <line class="cls-3" x1="431.8" y1="630.2" x2="431.8" y2="628.8"/>
          <line class="cls-3" x1="431.8" y1="629.5" x2="314.4" y2="629.5"/>
          <line class="cls-3" x1="314.4" y1="630.2" x2="314.4" y2="628.8"/>
          <line class="cls-3" x1="351.7" y1="616.1" x2="351.7" y2="614.7"/>
          <line class="cls-3" x1="351.7" y1="615.4" x2="328.9" y2="615.4"/>
          <line class="cls-3" x1="328.9" y1="616.1" x2="328.9" y2="614.7"/>
          <text class="cls-7" transform="translate(334.2 707.1)"><tspan x="0" y="0">RR = 0.89 [0.76–1.04]</tspan></text>
          <text class="cls-7" transform="translate(339.4 692.9)"><tspan x="0" y="0">RR = 0.93 [0.70–1.24]</tspan></text>
          <text class="cls-7" transform="translate(339.2 678.8)"><tspan x="0" y="0">RR = 0.93 [0.72–1.21]</tspan></text>
          <text class="cls-7" transform="translate(342.8 664.6)"><tspan x="0" y="0">RR = 0.96 [0.73–1.26]</tspan></text>
          <text class="cls-7" transform="translate(348 650.5)"><tspan x="0" y="0">RR = 1.00 [0.60–1.69]</tspan></text>
          <text class="cls-7" transform="translate(394.7 636.3)"><tspan x="0" y="0">RR = 1.50 [0.67–3.34]</tspan></text>
          <text class="cls-7" transform="translate(337.4 622.2)"><tspan x="0" y="0">RR = 0.92 [0.79–1.06]</tspan></text>
          <text class="cls-7" transform="translate(346 703.5)"><tspan x="0" y="0">RR = 0.99 [0.89–1.10]</tspan></text>
          <text class="cls-7" transform="translate(355.6 689.4)"><tspan x="0" y="0">RR = 1.07 [0.87–1.32]</tspan></text>
          <text class="cls-7" transform="translate(342.5 675.2)"><tspan x="0" y="0">RR = 0.96 [0.80–1.14]</tspan></text>
          <text class="cls-7" transform="translate(355.7 661.1)"><tspan x="0" y="0">RR = 1.07 [0.90–1.27]</tspan></text>
          <text class="cls-7" transform="translate(343 646.9)"><tspan x="0" y="0">RR = 0.96 [0.68–1.35]</tspan></text>
          <text class="cls-7" transform="translate(382.1 632.8)"><tspan x="0" y="0">RR = 1.35 [0.81–2.23]</tspan></text>
          <text class="cls-7" transform="translate(349.2 618.7)"><tspan x="0" y="0">RR = 1.02 [0.92–1.12]</tspan></text>
          <line class="cls-2" x1="338.6" y1="710.5" x2="338.6" y2="608.7"/>
        </g>
      </g>
      <g class="cls-17">
        <g>
          <line class="cls-5" x1="188.3" y1="775.9" x2="614.4" y2="775.9"/>
          <line class="cls-5" x1="258.1" y1="826.8" x2="258.1" y2="724.9"/>
          <line class="cls-5" x1="338.6" y1="826.8" x2="338.6" y2="724.9"/>
          <line class="cls-5" x1="419.1" y1="826.8" x2="419.1" y2="724.9"/>
          <line class="cls-5" x1="499.6" y1="826.8" x2="499.6" y2="724.9"/>
          <line class="cls-5" x1="580.1" y1="826.8" x2="580.1" y2="724.9"/>
          <circle class="cls-12" cx="297.2" cy="786.5" r="3.6"/>
          <rect class="cls-12" x="331.2" y="762.1" width="6.3" height="6.3"/>
          <line class="cls-4" x1="314.3" y1="790.7" x2="314.3" y2="782.2"/>
          <line class="cls-4" x1="314.3" y1="786.5" x2="280.1" y2="786.5"/>
          <line class="cls-4" x1="280.1" y1="790.7" x2="280.1" y2="782.2"/>
          <line class="cls-3" x1="344.3" y1="769.5" x2="344.3" y2="761"/>
          <line class="cls-3" x1="344.3" y1="765.2" x2="324.5" y2="765.2"/>
          <line class="cls-3" x1="324.5" y1="769.5" x2="324.5" y2="761"/>
          <text class="cls-7" transform="translate(306.1 789.7)"><tspan x="0" y="0">RR = 0.70 [0.60–0.81]</tspan></text>
          <text class="cls-7" transform="translate(343.3 768.5)"><tspan x="0" y="0">RR = 0.96 [0.89–1.05]</tspan></text>
          <line class="cls-2" x1="338.6" y1="826.8" x2="338.6" y2="724.9"/>
        </g>
      </g>
      <g class="cls-16">
        <text class="cls-9" transform="translate(182 136.4) rotate(-90)"><tspan x="0" y="0">Ischemic Heart Disease</tspan></text>
      </g>
      <g class="cls-13">
        <text class="cls-9" transform="translate(182 272.9) rotate(-90)"><tspan x="0" y="0">Cerebrovascular Complications</tspan></text>
      </g>
      <g class="cls-14">
        <text class="cls-9" transform="translate(182 338.6) rotate(-90)"><tspan x="0" y="0">Arrhythmia</tspan></text>
      </g>
      <g class="cls-20">
        <text class="cls-9" transform="translate(182 481.4) rotate(-90)"><tspan x="0" y="0">Thrombotic Disorders</tspan></text>
      </g>
      <g class="cls-21">
        <text class="cls-9" transform="translate(182 570.8) rotate(-90)"><tspan x="0" y="0">Headaches</tspan></text>
      </g>
      <g class="cls-22">
        <text class="cls-9" transform="translate(182 691.1) rotate(-90)"><tspan x="0" y="0">Hypotension</tspan></text>
      </g>
      <g class="cls-18">
        <text class="cls-9" transform="translate(182 797.5) rotate(-90)"><tspan x="0" y="0">Mortality</tspan></text>
      </g>
      <g class="cls-19">
        <g>
          <text class="cls-6" transform="translate(250.8 840)"><tspan x="0" y="0">0.5</tspan></text>
          <text class="cls-6" transform="translate(331.3 840)"><tspan x="0" y="0">1.0</tspan></text>
          <text class="cls-6" transform="translate(411.9 840)"><tspan x="0" y="0">2.0</tspan></text>
          <text class="cls-6" transform="translate(492.4 840)"><tspan x="0" y="0">4.0</tspan></text>
          <text class="cls-6" transform="translate(572.9 840)"><tspan x="0" y="0">8.0</tspan></text>
          <text class="cls-6" transform="translate(108.7 113.9)"><tspan x="0" y="0">Outcome_1</tspan></text>
          <text class="cls-6" transform="translate(37.7 82)"><tspan x="0" y="0">Acute myocardial infarction</tspan></text>
          <text class="cls-6" transform="translate(30.1 50.2)"><tspan x="0" y="0">Subsequent STEMI/NSTEMI</tspan></text>
          <text class="cls-6" transform="translate(77.5 241.8)"><tspan x="0" y="0">Cerebral infarction</tspan></text>
          <text class="cls-6" transform="translate(39.4 229.4)"><tspan x="0" y="0">Subarachnoid hemorrhage</tspan></text>
          <text class="cls-6" transform="translate(45.2 216.9)"><tspan x="0" y="0">Intracerebral hemorrhage</tspan></text>
          <text class="cls-6" transform="translate(52.1 204.5)"><tspan x="0" y="0">Intracranial hemorrhage</tspan></text>
          <text class="cls-6" transform="translate(29.6 192.1)"><tspan x="0" y="0">Pre-cerebral artery occlusion</tspan></text>
          <text class="cls-6" transform="translate(46.9 179.7)"><tspan x="0" y="0">Cerebral artery occlusion</tspan></text>
          <text class="cls-6" transform="translate(15.7 167.2)"><tspan x="0" y="0">Other cerebrovascular diseases</tspan></text>
          <text class="cls-6" transform="translate(108.7 154.8)"><tspan x="0" y="0">Outcome_2</tspan></text>
          <text class="cls-6" transform="translate(52.1 350.9)"><tspan x="0" y="0">Paroxysmal tachycardia</tspan></text>
          <text class="cls-6" transform="translate(92 326.7)"><tspan x="0" y="0">Atrial fibrillation</tspan></text>
          <text class="cls-6" transform="translate(42.9 302.4)"><tspan x="0" y="0">Other cardiac arrhythmias</tspan></text>
          <text class="cls-6" transform="translate(108.7 278.2)"><tspan x="0" y="0">Outcome_3</tspan></text>
          <text class="cls-6" transform="translate(65.4 473.2)"><tspan x="0" y="0">Pulmonary embolism</tspan></text>
          <text class="cls-6" transform="translate(67.1 459.1)"><tspan x="0" y="0">Phlebitis - superficial</tspan></text>
          <text class="cls-6" transform="translate(57.3 445)"><tspan x="0" y="0">Phlebitis - femoral vein</tspan></text>
          <text class="cls-6" transform="translate(53.3 430.8)"><tspan x="0" y="0">Phlebitis - deep vessels</tspan></text>
          <text class="cls-6" transform="translate(45.7 416.7)"><tspan x="0" y="0">Phlebitis - unspecified LE</tspan></text>
          <text class="cls-6" transform="translate(42.3 402.5)"><tspan x="0" y="0">Phlebitis - unspecified site</tspan></text>
          <text class="cls-6" transform="translate(108.7 388.4)"><tspan x="0" y="0">Outcome_4</tspan></text>
          <text class="cls-6" transform="translate(77.5 588.1)"><tspan x="0" y="0">Migraine with aura</tspan></text>
          <text class="cls-6" transform="translate(83.9 571.7)"><tspan x="0" y="0">Chronic migraine</tspan></text>
          <text class="cls-6" transform="translate(93.7 555.3)"><tspan x="0" y="0">Other migraine</tspan></text>
          <text class="cls-6" transform="translate(85.7 538.8)"><tspan x="0" y="0">Migraine (ICD-9)</tspan></text>
          <text class="cls-6" transform="translate(108.7 522.4)"><tspan x="0" y="0">Outcome_6</tspan></text>
          <text class="cls-6" transform="translate(63.1 506)"><tspan x="0" y="0">Migraine without aura</tspan></text>
          <text class="cls-6" transform="translate(53.2 705.8)"><tspan x="0" y="0">Orthostatic hypotension</tspan></text>
          <text class="cls-6" transform="translate(44 691.6)"><tspan x="0" y="0">Hypotension due to drugs</tspan></text>
          <text class="cls-6" transform="translate(6.4 677.5)"><tspan x="0" y="0">Hemodialysis-related hypotension</tspan></text>
          <text class="cls-6" transform="translate(77.5 663.3)"><tspan x="0" y="0">Other hypotension</tspan></text>
          <text class="cls-6" transform="translate(46.3 649.2)"><tspan x="0" y="0">Hypotension, unspecified</tspan></text>
          <text class="cls-6" transform="translate(67.7 635)"><tspan x="0" y="0">Hypotension (ICD-9)</tspan></text>
          <text class="cls-6" transform="translate(108.7 620.9)"><tspan x="0" y="0">Outcome_7</tspan></text>
          <text class="cls-6" transform="translate(108.7 779.6)"><tspan x="0" y="0">Outcome_5</tspan></text>
          <text class="cls-10" transform="translate(315 854.8)"><tspan x="0" y="0">Risk Ratio (log scale, 95% CI)</tspan></text>
          <text class="cls-10" transform="translate(633.8 411.2)"><tspan class="cls-23" x="0" y="0">TimeHori</tspan><tspan x="68.9" y="0">-</tspan></text>
          <circle class="cls-12" cx="642.5" cy="427.7" r="3.6"/>
          <line class="cls-4" x1="635.6" y1="427.7" x2="649.4" y2="427.7"/>
          <rect class="cls-12" x="639.3" y="441.8" width="6.3" height="6.3"/>
          <line class="cls-3" x1="635.6" y1="445" x2="649.4" y2="445"/>
          <text class="cls-8" transform="translate(657.6 431.4)"><tspan x="0" y="0">1-year</tspan></text>
          <text class="cls-8" transform="translate(657.6 448.7)"><tspan x="0" y="0">5-year</tspan></text>
          <text class="cls-11" transform="translate(188.3 17.6)"><tspan x="0" y="0">Forest Plot Grouped by Master Outcome</tspan></text>
        </g>
      </g>
    </g>
  </g>
</svg>